# xmcd
#
# Track frame offsets: 
#        150
#        21635
#        42355
#        59960
#        78660
#        100602
#        122865
#        141542
#        158955
#        179512
#        203585
#        225990
#        248507
#        265892
#        284027
#        298135
#
# Disc length: 4165 seconds
#
# Revision: 2
# Processed by: cddbd v1.5.1PL2 Copyright (c) Steve Scherf et al.
# Submitted via: ExactAudioCopy v0.95b4
#
DISCID=fb104310
DTITLE=林志美 - 林志美白金珍藏版
DYEAR=1990
DGENRE=Pop
TTITLE0=永遠動聽
TTITLE1=十二小時
TTITLE2=因我愛你
TTITLE3=攝石人
TTITLE4=冷戰
TTITLE5=偶遇 Seaside Mix (電影<少女日記>主題曲)
TTITLE6=你的眼神 Mystery Mix
TTITLE7=甚麼是緣份
TTITLE8=永遠冬天
TTITLE9=灑脫
TTITLE10=伴你一億里(林志美與Blue Jeans合唱)
TTITLE11=因你別離
TTITLE12=雨夜鋼琴 Blue Mix
TTITLE13=感情的段落
TTITLE14=風箏
TTITLE15=初戀 Mad Mix
EXTD=
EXTT0=
EXTT1=
EXTT2=
EXTT3=
EXTT4=
EXTT5=
EXTT6=
EXTT7=
EXTT8=
EXTT9=
EXTT10=
EXTT11=
EXTT12=
EXTT13=
EXTT14=
EXTT15=
PLAYORDER=
